# xmcd
#
# Track frame offsets:
#        150
#        18067
#        29612
#        41642
#        61435
#        77607
#
# Disc length: 1286 seconds
#
# Revision: 0
# Processed by: cddbd v1.5.1PL0 Copyright (c) Steve Scherf et al.
# Submitted via: ExactAudioCopy v0.95a5
#
DISCID=41050406
DTITLE=HOLSTEIN and WRONG SCALE - Night In Gale
DYEAR=1900
DGENRE=Rock
TTITLE0=December
TTITLE1=Layer
TTITLE2=The sun also rises
TTITLE3=Reason of sorrow
TTITLE4=the urban air
TTITLE5=PHOTO
EXTD=
EXTT0=
EXTT1=
EXTT2=
EXTT3=
EXTT4=
EXTT5=
PLAYORDER=
